<svg xmlns="http://www.w3.org/2000/svg" viewBox="0 0 437 9.489"><title>Asset 1</title><g id="Layer_2" data-name="Layer 2"><g id="Layer_1-2" data-name="Layer 1"><path d="M281.34,3.069" style="fill:#fea311"/><path d="M437,1V3c-.943.906-1.841,1.889-3.291,1.928-1.966,0-3.384,1.3-5,2.135-9.818,2.12-19.812,1.664-29.744,1.9-16.569.388-33.141-.19-49.718-.092-16.408.1-32.834-.309-49.242-.9-10.964-.394-21.971-.8-32.879-.061-6.588.447-13.125-1.514-19.208-.689-9.124,1.238-17.9-1.074-27.093-.073-14.4,1.569-29.189-.159-43.791.292-10.916.337-21.89.982-32.747.724-12.044-.286-24.207,1.405-36.2-1.282-4.971-1.114-9.721,1.543-14.711,1.525-1.606-.006-3.207.685-4.791-.181C84.942,6.58,81.5,6.189,77.519,7.944c-3.554,1.567-7.789.128-11.652,1.042-20.1.91-40.17.477-60.246-.43C3.252,8.449,1.43,7.833,0,6V0" style="fill:#fea311"/></g></g></svg>