<svg xmlns="http://www.w3.org/2000/svg" width="62" height="7" viewBox="0 0 62 7">
    <path fill="#D8232A" fill-rule="evenodd" d="M59.833 3c.024.696.607 0 0 0zM35.834 6.196c.227-.025-.016-.428 0 0zm-16-.196c.087.123.188.23.301.327-.023-.193-.124-.302-.302-.327zm24-.993c.197.927.015-.1 0 0zm-2.787.239c.187-.624-.563.154 0 0zm-17.045-.174c-.57-.543.535 2.221 0 0zM20.833 5c.106 1.059.203.085 0 0zm.644.575c-.084-1.853-1.405 1.498 0 0zm8.358-.478c1.607.349-.055-.34 0 0zm-1.002-.013c2.218.674.065-.378 0 0zm18.1-.078c-.217.065-.055.595.251.381-.007-.178-.203-.43-.252-.38zm10.9-.617c.962-.15.544-.796 0 0zm1-.39c.072.133.257 0 0 0zm-1-.998c.143.191.213.46.504.49-.108-.194-.36-.516-.504-.49zm-.979 1.175c.06-.01.065-.081.05-.176-.022.033-.047.07-.07.108.007.025.012.037.02.068zM56.834 3c.001.051.49.712.549 1 .216-.239.369-.272.45-.074-.33-1.113-.159-.305-1-.926zm.013 1.316c.03-.05.053-.079.08-.122-.086-.29-.114-.26-.08.122zm-8.633-1.302c-.844-.137-.025.794 0 0zM60.022 3a.87.87 0 0 0 .095.322c.12-.024.208-.045.208-.05-.084.13-.152.139-.208.05a9.264 9.264 0 0 1-.284.053c.121.879 1.37-.342.19-.375zm.16.103c-.004-.033-.01-.064-.011-.103-.573.178-.31.157.012.103zm-8.156-.093c-.593 1.144.412-.135 0 0zm-2.193.163c.094-.147.107-.302 0 0zm3.003.988c.64 0-.05-.363 0 0zM51.833 4c-.007.136.504.118 0 0zm.897-.293c.143.038.102.829.083.825.083.446-1.018-.026-.92 0 .067.192.446.21.375.468a9.646 9.646 0 0 0-.628-.036c.018-.179-.006-.703-.041-.707-.181.957-2.033-.2-2.145.361a1.679 1.679 0 0 0-.576-.427c.212-.219.03-.96-.045-1.191.221.522.412.41.506.28-.02.046-.042.109-.071.188-.004-.009-.01-.004-.015.043.005-.018.01-.027.015-.043.012.025.017.205.004.353-.054.035-.095.074-.103.122.06.136.09.027.103-.122.566-.37 3.4-.107 3.458-.114zM49.842 5a.677.677 0 0 0 .01.26c.112-.02.082-.128-.01-.26zm-1.006-.873c.093.009.154-.032.205-.092-.133-.06-.226-.053-.205.092zm-.588-.487c.42-.148.24-.493.257-.64-.26.399-.752-.046-.66.368.405.167.322-.225.403.272zm8.29-.58c.047-.014-.397.009-.585-.06a1.18 1.18 0 0 1-.12.346c.504.227.557.244.705-.286zm.327.947L56.833 4c.014.04.026.057.032.007zm-.92.244c0-.58-.251.03 0 0zm.888.178c-.473-.11-.594-.178-1.1-.506.155.08.424.92.44 1.077-.38-.028-.227-1.047-.44-.205-.361-.718-.2-.736-.926-.513-.008.073.039.578.039.564-.212-.23-1.053-1.095-1.207.154-.202-.483-.35-.483-.443 0 .05-.506-.149-1.153-.363-1.589.031-.147 1.148-.43 1.57-.41-.007.024.685.13.523.667-.467.189-1.11-.288-1.449-.309.049.3-.045.402-.281.309-.018.364 1.38.539 2.09-.08.24.234 1.465-.068 1.412-.074-.014-.069.085.748.135.915zM55.088 3c-.268.236-.302.379-.204.46.146-.107.269-.236.357-.391A7.064 7.064 0 0 0 55.088 3zm.83.212c.012-.07.028-.135.03-.211-.163.112-.132.174-.03.21zM53.834 3c-.029.546.615.023 0 0zm-7 .013c.49.732.448-.126 0 0zm6-1.013c-.018.993.458.302 0 0zm-3-.887c0 .604 3.06.495 1.609.27.152-.744-1.38-.154-1.61-.27zm-40-.05c.726 1.495.141-.423 0 0zm42 .105c1.041-.215 0-.234 0 0zm-18.829-.132c-.358-.215-.055.614 0 0zm6.828.11c.136-.098 0-.274 0 0zm14-.146c.121.252.253.105 0 0zm0 .013c.166.294.568-.085 0 0zM55.834 1c-.027.256.844.816 0 0zm-10-.859c.857-.066 0-.282 0 0zm2 5.351c0 .736.702-.415.553-.38-.016-.483-.003.782-.554.38zM1.954 4.267c0-.61-.274.016 0 0zm5.878-2.264l.002.009L7.843 2c-.005.002-.006 0-.01.003zm32.215-.887c-.138-.071-.23-.119-.212-.116 0 .25.076.281.212.116zM12.853 5.005L12.833 5c.008.085.015.07.02.005zm-4.02.029l.015-.015-.01-.02c0 .013-.006.025-.004.035zm31-3.918l.043.023c.032-.054.053-.104.047-.14a.927.927 0 0 1-.09.117zM6.865 5c-.016.038-.035.078-.031.089.117-.01.098-.047.03-.09zm27.982-.96c0 .008.002.007.002.014.044.002.065 0 .094 0a1.61 1.61 0 0 1 .052-.042c-.08-.017-.203-.024-.148.027zm2.986-1.033c.06.01.137.007.234-.007-.032-.002-.12.002-.234.007zm5.09.117c-.02-.054-.034-.083-.05-.124a.49.49 0 0 0-.04.022c.031.058.063.103.09.102zm-5.09.275c.094.037.155.055.23.08.152-.443.19-.772-.23-.08zm9.008.6c-.092.632.727.048 0 0zm-.467-.92c-.259-.281-.666.275-.504.273-.04-.317.498-.007.504-.272zm-.338 1.299c0-.993-.456.322 0 0zm-.856-1.091c-.173-.227-.686-.512 0 0zm-.347.718v.217c.26.07.234-.266 0-.217zm-1 1.027c.114.38.013-.165 0 0zm.112-.782c0-.579-.251.031 0 0zM43.833 3c.082 1.529.304.01 0 0zm.025 1.002c-.056-.04 0 .568 0 0zm-1.025.064c.87.013.38-.156 0 0zm-1 .101c1.91-.003-.021-.375 0 0zm0-1.051c.054.451.422-.415 0 0zm.24 1.035c-.035-.406-.521.154 0 0zm-.24.849c0 .536.867-.008 0 0zm-.869-2c-.076-.016-.252 1.127 0 0zm-.126-1c-.1 1.17 1.464.025 0 0zm.317 1.56c-.59-1.23-.231-.06 0 0zm-.322-.274c.473 0 0-.643 0 0zm.107-1.027c0-.62-.24.078 0 0zm-.755.993c.021-.199-.31-.36-.352-.163a.404.404 0 0 0 .352.163zm-.352.571c0-.38-.507-.822-.485-.823.33.899-.203.79-.514.786-.038.445.97.04 1 .15-.115-.256-.115-.294 0-.113zm-1.784-.799c-.116.14-.111.217.014.233-.469.022-1.731.098-2.082-.037.008-.019-.146.48-.148.488.04.011 1.985.224 2.032.131a.518.518 0 0 0-.554-.032c-.095-.826.935.364.702.13.016.212.233-.155.353-.44.333.094.424.078.46.114.079-.325-.448-.713-.777-.587zm-2.863.42c.352-.254-.253-.585-.353-.38.125.119.17.324.353.38zm-.353.55c-.017-1.26-.464-.183-.751-.994.19.998-.325.062-.239.95.088.007.155.011.207.012 0 .058.021.042.063 0 .103-.003.085-.022.036-.035.117-.112.338-.271.684.067zm.244 1.017c-.219-.064-.303.157-.2.272.184.04.22-.086.2-.272zM34.2 3.204c-.037-.14-.441-.318-.354-.108.087-.178.194.365.354.108zm-.367.822c.03.42.958-.152 0 0zm0-.888c.314-.111.57-.245 0 0zm.027.236c.486.358-.162-.999 0 0zM33.833 3c.058.172.192.263.352.326.012-.248-.188-.268-.352-.326zm0-.938c.678.928.044-.349 0 0zm1.053.735c.826-1.767-.3-.052 0 0zm.947-1.735c.01.19.38.24.302-.055-.154-.039-.148.095-.302.055zm1.11 1.42c0-.152-.247-1.004 0 0zm-.11-.411c1.272.202.16-.233 0 0zm0-.05c.613.057-.003-.068 0 0zm0 .979c.032.154.631.164 0 0zm0-.86c.333 0 .2-.316 0 0zM37.906 2c-.317.698.537.444 0 0zm-.064.142c-.102.745.717-.556 0 0zm-.009-.037c1.023.178.54-.308 0 0zm.002-1.074c-.016.144.104.141.2.163.014-.224-.06-.217-.2-.163zm.237 1.382c0-.086-.536-.886 0 0zm.072-.36c-.155.04-.183-.054-.302-.053-.071.246.34.309.302.054zm-.31 1.054c.198-.069.121.16.252.164.06-.225-.195-.389-.253-.164zm1-1.658c1.257.285.594-.11.905.55.188-.67.144-1.546-.906-.55zm0 1.551c1.085 1.141.016-.02 0 0zm1.437-.852c-.956-.505-.058.485 0 0zm.575-.892c.221.026.107-.167.303-.055.03-.283-.394-.27-.303.055zm-.013 1.026c.155.084.155-.355 0-.272v.272zm-7.42.01c.206-.727-1.401.152 0 0zm-.358.764c-.01-.08-.122-.05-.202-.054-.108.2.256.245.202.054zm-.134-.011c0-.112-.198.025 0 0zm-.08.955c-.12.394 1.186.254 0 0zm-1.008.405c.3 0 .054-.911 0 0zm0-2.395v.271c.155.083.155-.354 0-.27zM32.64 5c.005-.081-.674-1.192-.807-.971.261.053.26.85.807.97zm-.807-2c.004.644.877.098 0 0zm.107-.687c0-.711-.24.014 0 0zm-1.058 1.692c-.117.121.016.212 0 .381.215.064.215-.444 0-.38zm-.049.06c.493-.08.253-.093 0 0zm.756-.616c-.035-.502-.552-.595-.756-.217.392.109.307.372.756.217zm-.528.863c.521-.65-.713-.1 0 0zm.164.16c-.745-.93-.243-.242 0 0zM30.833 4c0 .769.302 0 0 0zm-.699.327c-.022-.193-.123-.301-.3-.327 0 .217.124.3.3.327zm.109-1.981c-.413-.713-.664-.122 0 0zm-.312 2.047c.294-.562-.326-.484 0 0zm.156-.06c-.005-.347-.014-.395-.252-.272-.016.2.135.216.252.272zm-1.233-.032c.57.251-.147-.789 0 0zm.288-1.185c.048-.197-.198-.077-.303-.109-.047.196.198.075.303.11zm-.309 1.352c.355.123.574-1.112 0 0zm0-1.468c.45.71.095.022 0 0zm0-.767c.533.005.137-.528 0 0zm-1 1.767c0 .343.24.016 0 0zm.108-1.942c.009-.105-.246-.043 0 0zm.892.21c.826-.32.063-.393 0 0zm-1 1.9c.693 0 .095-.379 0 0zM27.256 4c-1.456 1.36 1.436.8 0 0zm-.07 1.1c-.114-.09-.322-.194-.353.055.105-.032.331.067.353-.054zM26.833 4c.21.479.391.048 0 0zm0-1.845c.83 1.216.31-.69 0 0zm.005-.085c.373.117-.051-.206 0 0zM26.839 4c-.043.355.17.517 0 0zm-.958.007c-.083.088-.062.34.1.326-.03-.112.082-.378-.1-.326zm.136-.004c-.427-.047.026.422 0 0zM25.833 5c0 .33.308.349 0 0zm0-.918c.42.555.73-.348 0 0zm0 1.422c.583.23.914-1.242 0 0zM25.193 4c-.812 0 .006.362 0 0zm-.12 1.095c.082-.157-.578-.092 0 0zm-.217-.045c.609 0-.16-.112 0 0zm-.022-1.794c.561-.025-.025-.564 0 0zm1.016-.007c.055-.284-.056-.376 0 0zm-1.017.924c.68-.22.087-.241 0 0zm-1-.969c.572.045 0-.482 0 0zM23.836 3c-.06.389.856.047 0 0zm-1.003 2c0 .692.962.238 0 0zm.263-1.804c.176-.513-.67.16 0 0zm-.251.806c-.108.363.609-.037 0 0zm-1.002 1.02c-.16 1.3 1.85-.217 0 0zm.99-1.884c.35.087.218-.35 0 0zm1-.875c.235.104 0-.64 0 0zm-1.974-.054c.331.804-.137-.746 0 0zm-1.018.193c1.019.849-.107-1.234 0 0zM18.833 2c.135.344.657.018 0 0zm.453.085c-.035-.125-.412-.118-.453.055.062.155.438.147.453-.055zm-1.453 1.46c.147 0 .47-1.226 0 0zm0-.534v.272c.154.083.154-.356 0-.272zm-1 .148c.53 0-.015-.358 0 0zm-.496.936c-.184-.092-.459-.197-.504.108.132.224.431.049.504-.108zm-.946.215c-.02-.75-1.244.108 0 0zm-.548-1.187c0 .083.373.12.302-.055-.001-.082-.374-.119-.302.055zM14.833 2c.04.214-.022.282.05.38.028-.118.123-.351-.05-.38zm-1 0c.27 1.185.51.09 0 0zm0 0c.236.477.133.122 0 0zm.272 2.061c.009-.118-.178-.024-.252-.054-.114.216.309.241.252.054zm-.272-1.788c.198.07.15-.128.151-.272-.153-.019-.104.178-.15.272zM13.287 2c-.114.235-.214.377-.454.216.038.424.651-.045.454-.216zm-1.435.287c.514-.13-.133-.576 0 0zm-.806-.12c.016-.144-.069-.179-.2-.164-.052.181.07.178.2.163zm-.213.035c.073.01.36-.46 0 0zm-.651 1.099c0-.624-.784-.1 0 0zM9.833 2c.16.752.66.09 0 0zm0 3.29c.045.005.126-.656 0 0zm-.835-3.013c0-.658-.37.074 0 0zm-1.163.986c.878-.167-.05-.497 0 0zm-.002-.257c0 .62.243-.078 0 0zM7.838 2c-.075.475.781.129 0 0zm-.005 1.033c.095.098.247.42.252.434.047-.274-.079-.567-.252-.434zm0-.033c.087.105.074.318.201.38.011-.211-.053-.341-.2-.38zm.062-.734c.631.67-.301-.85 0 0zm-.062.973c.37-.06 0-.506 0 0zM7.135 2.2c.027-.249-.17-.219-.302-.162-.005.168.153.161.302.162zM7.035 1c-.048.184-.184.272-.202.488.194.025.381-.463.202-.488zm.05 1.327c-.032-.165-.065-.33-.252-.327.077.118.123.267.252.327zM6.966 5c-.377.029.189.015 0 0zM5.84 2.126c-.075.973.487-.557 0 0zm-1.007.048c.507-.131.254-.315 0 0zm-.748.025c.04-.237-.196-.248-.252-.108.191-.08.097.148.252.108zm-.252 1.8c0 .22.13.01 0 0zm38.049-2.327c.879-.129-.294-1.446 0 0zm-.049.566c.37-.059 0-.506 0 0zm1-1.163c-.009.172 1.011-.235 0 0zm0 1.403c.29.18.416-1.161 0 0zm.01-.174c2.303.05-.177-.708 0 0zm1.396.34c.085-.82-.954-.897 0 0zm-.406-.535c.001.011.422-.251 0 0zm2 .096c.451.03 0-.476 0 0zm.144.016c-.015-.53-.315.07 0 0zm.904.16c.507 0-.236-.857 0 0zM48.834 2c-.014.195.552.102 0 0zm-.383 1.835c-.538-.714-.45.493-.765.564 0 .002-.002-.982 0-.978-.388.077-.412.331-.153.64-.222-.055-.854-.575-.957-.564.004-.025-.2.206-.388.175-.106-.175-.198-.3-.225-.25.056.173.14.236.225.25.16.266.35.65.388.727-.246-.015-.878-.044-.843-.226.197.006.345.087.345-.263-.823.68-.414.05-.842-.188-.491.024-1 .192-1.15.526-.491-.14-.76.093-1.109.038-.046-.129-.04-.219 0-.283.08-.038.148-.072.207-.096a.802.802 0 0 1 .176.003c-.028-.048-.091-.037-.176-.003-.103.007-.17.04-.207.096-.325.158-.789.35-1.148-.168.075 1.105-1.186.324-1.646-.076.243.018 1.092.409.995-.262-.267.07-1.266-.233-1.913.15.099.166-.01.281.008.418-.214.022-.468.058-.743.086.043-.027.133-.108.261-.238.034.028.07-.03.115-.117.083-.086.174-.183.282-.3-.133 0-.217.172-.282.3l-.115.117c-.021-.016-.041-.055-.062-.154-.162.235-.239.365-.232.395-.079.008-.162.013-.244.017-.045-.101-.117-.203-.047.004-.439.026-.895.007-1.277-.152-.243.164.505.11.268.526-.498.039-.714-.099-.65-.413-.014.002.407.12.038-.151-.298.1-.376.288-.23.564-.102-.014-.382-.531-.382-.639-.57.818-.29.24-1.02-.22-.03-.047-.068-.081-.13-.08.053.026.086.054.13.08.121.2.01.737-.014 1.01-.053.01-.083.006-.104-.005.03-.078.04-.122.036-.138.086-.042.158-.203-.086-.233-.044.184-.003.243.048.244-.029.036-.048.103.002.127-.014.035-.025.067-.05.117-.136-.043-.577-.124-.65-.151-.002-.007-.333-.75.077-.75-.179-.259-.617.06-.723-.584-.016.087-.196.437-.196-.018-.575.408-.04.413-.995.413-.031.227.339.48.306.752.254-.064.974-.372 1.071-.075-.202-.161-.19-.073.039.262-.228.271-1.413-.42-1.187.339.069-.01-1.083-.55-1.033-.827.082-.004-.598.79-.574.79.16-.218.108-.293-.154-.227-.05-.613.387-.278.23-.676-.078-.004-.41.815-.65.564.459-1.111-1.358-.61-2.234-.348a1.021 1.021 0 0 0-.178-.253c.03.127.064.213.096.277-.204.062-.344.105-.364.099-.103.023-.631.099-.728.489-.294-.196-2.45.113-2.487-.414.351.047.073.155.305-.301-.24-.474-1.456.144-2.29.483.146-.02.313.01.415.156-.687.147-.78.034-.659-.063-.17.06-.313.1-.412.1-.08-1.271-3.289-.935-3.254-.45-.353-.417-.41-.794-1.225-.677.504.207-.454.704-.575.752.015-.558.07.011-.344-.64-.653.086.194.563-.497.715-.077-.085-.039-.135.114-.15.007-.685-.362.01-.382-.489-.257.519-.396.092-.536.075-.337.223.306.263.307.263-.085.092-.157.23-.278.33.228-.003-.101.584-.069.052a.521.521 0 0 1-.266.07c.534-.07-.515-.795-.699-.951.067.11.196.54.125.5-.085.08-.782-.031-1.507-.168.014-.168.01-.777-.025-.134l.01.13c-.683-.13-1.388-.282-1.618-.318.009.184.304.529 0 .64.017-.027-.848-.513-.688.075-.623-.783-.652.347-.88-.602-.232.228-.36.24-.384.038-.085.38-.458.308.04.376.042.645-.279-.041-.412-.312.678-.607-.003-.235-.007-.013l-.027-.054-.015.003.015-.003c-.02-.036-.027-.044-.015.003-.154.033-1.135.247-1.147.263.14-.199.09-.211-.155-.037.002.006.237-.569.192-.527-.02-.011-.268.34-.268-.038-.255.182.004.41-.306.602-.145-.246-.22-.259-.23-.037-.047-.048-.17-.608-.152-.677-.054.013-.229.272-.283.39a1.092 1.092 0 0 0-.312-.1c.32-.134.38-.33.173-.591-.471.404-.09.036-.46.714-.048-.46-1.551-.456-1.53-.827-.11.2.238.67-.269.79-.036-.132-.991-.257-.994-.376.776.11-.385-.159-.116-.226-.004.02-2.645-.438-.689-2.18C1.877.695 1.267.531.834.526.822.247 1.118.406.91 0 1.78.44 3.737.5 4.048.45 4.008.41 5.413.695 5.58.828 6.347.684 7.103.237 7.99 1.24a.253.253 0 0 0 .078-.068c.03.344.603-.194.007-.008.14-.182.207-.541.795-.45-.262.414-.405.247.383.114.07.222-.013.36-.233.418l-.215-.003c-.153-.209-.234-.214-.24-.003 0 .002.103.002.24.003.01.014.017.02.027.035a.914.914 0 0 0 .188-.032c.28.004.588.012.616.032.353-.207-.242-.246-.192-.564.127.27.23.308.307.114.306.126.42.365.344.713.433-.048.65-.6 1.034-.6-.067.52.305.215.23.563.14-.407.436-.293.563-.618.062.094.532.451.431-.022.12.153.828.666 1.379.15-.005.056.015.18-.061.228a.516.516 0 0 0-.207-.002c.112.038.168.027.207.002.12.027.194.111.214.262.265-.15-.271-.523.306-.527.062.544.247-.144 1.034-.037 0-.016-.058.056-.125.149-.138.039-.226.137-.22.34-.02.004.113-.194.22-.34.382-.109 1.174.27 1.58.34.006.02 4.207-.981 5.457-.037-.08-.024-.211-.004-.176.074.008.056.251.15.23 0 .01-.022-.003-.035-.015-.05.084.07.155.148.206.238-.166.003 1.504-.757 1.494-.826-.261.042.683.687.688.601.747-.111.032-.429 1.03-.068-.011.025.008.04.08.03l-.08-.03c.06-.137 1.174-.66.923-.045.113-.508 1.707-.125 2.64-.602.106-.054-.162.369-.244.443.236-.08.45-.155.65-.214-.032-.027-.069-.05-.098-.079.06-.081.111-.009.148.065.62-.178 1.088-.175 1.498.424.032-.636-.077-.125-.077-.6.253.032.347-.079.65-.076-.1.36-.55.533.077.676 0-.745 3.258-.288 3.866-.789.003.093.152.482.153.602.363-.228.525-.455.46-.865.275 0 .279.6.306.563-.094-.16-.158-.15-.192.038.032.114 2.089-.45 2.374-.563.237.743.129.376.688.827.168-.065.542-.364.654-.544.325.152.946.438 1.03.52-.1-.896 2.163-.894 2.297-.841.103.1.103.2 0 .3-.174-.132-.212-.094-.115.113 1.475-.149.577-.277 2.03-.15.178.616-1.19.658-.055 1.092.001.053.028.075.092.037l-.092-.037c-.012-.295.784-1.699.666-1.13.343.027.59.983.422-.075.076.1.152.1.23 0 .06.176-.149.677.114.677.048-.276.373-.827.382-.827-.148-.294 1.095.112.21.453-.061.002-.1.013-.095.036.037-.012.063-.024.094-.036.188-.009.593.065.67.165-.187.083-.324.159-.228.17.223-.058.27-.117.229-.17.26-.115.62-.244.614-.242.416.073-.307.491.267.45-.043.027-.057.065-.037.113-.028-.012-.975.287-.919-.112-.006.136-.095.186-.268.15.451 1.006-.263.254-.191 1.128-.134.008-.153-1.137-.384-.188-.189.014-.381-.533-.42-.714-1.056 1.068.53-.615-.536.3.15.453-.135.044 0 .602-.625-.03-.242-.44-1.11-.601.152-.195.127-.27-.076-.227-.04.992-2.034 1.013-2.105.189-.02 0-.184.114-.385.215-.166-.359-.107-.119-.03.016-.258.126-.568.22-.721.034a.216.216 0 0 1 .085-.014c.056.032.098.052.093.05a.11.11 0 0 0-.093-.05 1.718 1.718 0 0 1-.142-.09.853.853 0 0 1-.033-.35c-.285.074-.134.234.033.35a.352.352 0 0 0 .057.104c-.241.083-.604.491-.665.562.623-.052.861.094.996-.225.502.29.158.538.114.713 1.195-.591.262.138.996-.037-.027-.196-.083-.078-.038-.225-.195-.016-.745-.125-.613-.451.382-.062 1.325.067 1.225.639.077-.11 1.07-.62 1.226-.602-.023.273.066.336.268.188 0 .335-.23-.005-.23.414-.005 0 .69-.446.574.037.394.036-.123-.35-.115-.375.776.043.237-.164 1.378-.038-.138.51-.69.487-.421.563 1.09.318.633-.214.65-.45.252-.048.33-.01.344.039-.107.168.023.072 0 0l.001-.002c.321.158.265.735.612.677 0-.121-.218-.434.077-.414-.068.208.01.258.23.15.018.22.23.375.19.64zm-8.157.57c.223.78.786.934.417-.405.03.414-.938-.29-.875.404.004 0 .004.003.006.003.188-.02.347-.028.452-.003zm-1.427.706c.092.093.072-.004.03-.111-.022 0-.042.003-.064.005.011.035.017.058.034.106zM27.942 5a6.758 6.758 0 0 1-.109.035c.117.253.212.2.11-.035zM39.88 5l-.046.004a.447.447 0 0 0 .14.265c.113-.168.078-.256-.094-.27zM50.833.489c-.383.118-.516-.045-.398-.49-.076.665-.607.507-.499.762-.02.076-.055.116-.103.135.463-.075.855-.215 1-.407zM47.836.436c-.07.522 1.103.65 1.997.513-.33.066-1.202-.97-1.367-.949-.098.658-.309.803-.63.436zM47.833 1c.09.845.4-.024 0 0zM28.116 6.115c.016-.075-.644-.216 0 0zm4.723-.108c-.048.195.2.075.302.108.05-.196-.198-.076-.302-.108zm2.156-.006c-.364-.018 0 .327 0 0zm-3.162.034c.204-.022.035.359.303.27-.017-.148-.198-.397-.303-.27zm2.06.009c-.324 1.058.817-.299 0 0zM22.833 6c.22 1.303.347 0 0 0zm19 0c0 .362.432 0 0 0zM39 5.006c-.375-.093 0 .934 0 0zM36.833 5c.117.986.17.15 0 0zm-14.998.017c-.023.138.264.216.303.108-.144.01-.1-.183-.303-.108zM19.833 5c.026.136-.002.328.151.326.044-.21-.084-.235-.15-.326zm4.055.435c-.024-.209.175-.174.1-.435-.148-.01-.206.352-.1.435zM20.376 6c-1.192.26-.056.094 0 0zM18.85 5c-.072.747.112.32 0 0zm-2.858.326c.01-.156-.013-.276-.1-.326-.105.146-.071.23.1.326zM14.833 5c0 .88 1.002.254 0 0zm5 .278c.003 0 .031-.626 0 0zM13.843 5c-.11 1.476.774 0 0 0zm14.99.125c.042.461.588-.442 0 0zM20.836 5c-.042.43.417 0 0 0zm-8.844.002c-.23-.048-.192.716 0 0zm36.846.245c.196.03.247-.097.455-.054-.095-.15-.509-.37-.455.054zM41.4 5c-1.267.469-.015.22 0 0zm11.433 0c.038.34.255.204 0 0zM44.84 5c-.07.333.448.426 0 0zm-33.006.088c.574-.073-.022-.155 0 0zm-3.94.293c.02-.08.243-.36 0-.381-.048.046-.109.346 0 .38zm44.94-.376c.055.103.07.249.2.272-.003-.159-.018-.307-.2-.272zm-1-.005c0 .68.22 0 0 0zm-34 0c.197.678.06.147 0 0zm35 0c.01.402.324 0 0 0zm-2.992 0c-.1.487.692.188 0 0zm-.989.002c-.108.2.257.245.202.054-.01-.08-.122-.05-.202-.054zM57.995 5c-.364-.017 0 .33 0 0zm1.1-1h-.251c-.08.167.328.167.25 0zM48.928 4c-.477.89 1.067.157 0 0zm-44.091.028c-.045.247.38.2.353 0-.157-.07-.145.015-.353 0zm52.22-.014c-.398-.095-.179.323 0 0zM58.851 4c-.105.227.274.204.3.11-.202.074-.158-.119-.3-.11zM37.124 4c-.608.446-.088.126 0 0zm23.71 0c0 .737.93 0 0 0zm-.764 0c-.532.117 0 .5 0 0zm-2.074-.996c-.154-.053-.249.4-.05.38.113-.023.02-.267.05-.38zm3.033-.001c-.44-.054 0 .685 0 0zm-4.194.216c.206-.057.249-.008.504-.054 0-.247-.538-.208-.504.054zm-5.788-.056c.016-.144-.105-.14-.202-.163-.05.182.07.178.202.163zm10.971.064V3.01c-.258-.07-.235.267 0 .218zm-10.185.014c.333.099 0-.588 0 0zm7-.096c.002.08.316-.363 0 0zM56.84 3c-.08.545.623 0 0 0zm-4.007 0c.04.37.257 0 0 0zm-4.646.217c-.025-.171-.23-.15-.352-.217-.018.217.144.244.352.217zm.648-.21c-.015.144.105.14.2.163.052-.182-.068-.179-.2-.164zm12.004-.004c-.035.183.104.178.15.272.01-.156.007-.297-.15-.272zM58.386 3c-1.372.12.275 1.032 0 0zm-8.55 0c-.047.228.439-.016 0 0zm-1.003.024c.855.841.05-.192 0 0zm10.252.248c.031-.215-.114-.241-.252-.272.028.15.052.304.252.272zm-7.194.055c-.006-.09.164-.346-.05-.326.028.096-.062.32.05.326zM49.833 2c.175.567.234.63 0 0zm6.049 0c-.15.584.102.026 0 0zm-2.646 0c-.135.125-.402.109-.403.38.346.108.77-.218.403-.38zm-4.418 0c.06.024-.81.281-.976.354-.126 1.624 1.145-.322.976-.354zm5.018 0c-.034 0 .28.564 0 0zm-42.002-.992c-.024.195.428-.054 0 0zm44-.008c0 .266.363 0 0 0zm-3.778.68c-.067 1.003.398-1.109.151-.6.012.614-.734.557-.15.6zm.777-.68c0 .242.862 0 0 0zm2.208.21c.042-.193-.107-.268-.201-.161-.045.175.164.076.2.162zM57.833 1c.09.437.324 0 0 0zm-27.84.274c.012-.155.007-.297-.15-.271-.04.187.048.239.15.271zM51.834 1c0 .402.565-.007 0 0zm-19.969.011c-.18.656.502-.11 0 0zm2.277.145c.018-.233-.184-.146-.302-.108-.048.196.198.076.302.108zm19.7-.117c-.092.297.732-.173 0 0zM50.832 1c.01.557.806 0 0 0zm-4.979 0c-.137.64.464 0 0 0zm-3.669 0c-.153.017-.343-.007-.352.164.118.06.357.109.352-.163zm-6.095.327c.048-.36-.096-.268-.253-.326-.036.238.227.153.253.326zm16.85.006c-.03-.11.083-.377-.1-.326.03.112-.081.378.1.326zM51.924 1c-.218.835.034.033 0 0zm4.913 0c-.043.434.416 0 0 0zm-11.64.173c-.21.056-.155-.318-.355-.11-.065.203.3.217.354.11zM43.832 1c0 .163.391.354 0 0zm11-1c.164 1.38.13.005 0 0zm-1 0c.015.52.22 0 0 0zm1 0c.271.8.18 0 0 0zm-8 0c.033.294.308.278 0 0zm3 0c.18.675.161.004 0 0zm-2 0c.162.483.123.25 0 0zm.286.606c.295-1.435-.77.148 0 0zM49.14.171c.06-.394-.721.018 0 0zM47.833 0c.042.408.255 0 0 0zm2 0c.35 0 .01.469 0 0z"/>
</svg>
